# xmcd
#
# Track frame offsets:
#	150
#	16383
#	39198
#	54363
#	80378
#	99996
#	123935
#	143185
#	161309
#	180737
#	200890
#	214540
#	236065
#	249197
#
# Disc length: 3568 seconds
# Revision: 0
# Processed by: cddbd v1.5.2PL0 Copyright (c) Steve Scherf et al.
# Submitted via: dBpowerAMP V12.0
#
DISCID=ae0dee0e
DTITLE=Robert Jr. Lockwood and The Aces - Blues Live
DYEAR=1974
DGENRE=Blues
TTITLE0=Sweet Home Chicago
TTITLE1=Going Down Slow
TTITLE2=Worried Life Blues
TTITLE3=Anna Lee
TTITLE4=One Room Country Shack
TTITLE5=Stormy Monday
TTITLE6=Feel All Right Again
TTITLE7=Honky Tonk [Instrumental]
TTITLE8=Mean Black Spider
TTITLE9=Little And Low
TTITLE10=You Upset Me Baby
TTITLE11=Sweet Little Angel
TTITLE12=Just Like A Woman
TTITLE13=Juke
EXTD=
EXTT0=
EXTT1=
EXTT2=
EXTT3=
EXTT4=
EXTT5=
EXTT6=
EXTT7=
EXTT8=
EXTT9=
EXTT10=
EXTT11=
EXTT12=
EXTT13=
PLAYORDER=
